<?xml version="1.0" standalone="no"?>
<!DOCTYPE svg PUBLIC "-//W3C//DTD SVG 20010904//EN"
 "http://www.w3.org/TR/2001/REC-SVG-20010904/DTD/svg10.dtd">
<svg version="1.0" xmlns="http://www.w3.org/2000/svg"
 width="16.000000pt" height="16.000000pt" viewBox="0 0 16.000000 16.000000"
 preserveAspectRatio="xMidYMid meet">
<metadata>
Created by potrace 1.11, written by Peter Selinger 2001-2013
</metadata>
<g transform="translate(0.000000,16.000000) scale(0.001600,-0.001600)"
fill="#000000" stroke="none">
<path d="M2011 8342 c-5 -2 5 -40 21 -85 17 -45 42 -113 55 -152 14 -38 29
-79 33 -90 4 -11 13 -33 18 -50 20 -56 143 -403 216 -605 75 -211 355 -998
398 -1120 22 -63 44 -124 49 -135 4 -11 54 -148 109 -305 56 -157 123 -346
150 -420 50 -140 196 -551 232 -655 12 -33 25 -64 28 -70 4 -5 10 -21 12 -35
5 -23 242 -693 273 -770 8 -19 107 -296 220 -615 114 -319 219 -616 235 -660
16 -44 52 -145 80 -225 29 -80 61 -170 72 -200 11 -30 55 -156 99 -280 43
-124 83 -233 89 -242 5 -10 10 -25 10 -33 0 -13 69 -15 578 -15 l577 0 29 83
c15 45 31 91 36 102 4 11 11 29 15 40 11 31 88 246 140 390 25 72 48 137 50
145 2 8 24 69 49 135 25 66 46 128 46 137 0 9 4 19 9 22 5 3 12 18 16 33 3 16
22 71 42 123 19 52 37 101 39 110 4 18 92 266 105 295 4 11 20 54 35 95 14 41
39 111 54 155 16 44 51 143 78 220 28 77 71 199 97 270 26 72 68 191 95 265
63 178 211 593 267 750 24 69 67 188 94 265 27 77 52 147 56 155 3 8 7 20 9
25 1 6 66 188 144 405 78 217 150 422 161 455 11 33 25 69 30 80 5 11 65 180
134 375 69 195 135 380 146 410 11 30 35 98 54 150 45 128 327 918 358 1003
21 59 23 67 8 68 -9 1 -260 2 -558 3 l-543 1 -9 -25 c-5 -14 -28 -79 -49 -145
-22 -66 -185 -559 -362 -1095 -178 -536 -375 -1135 -440 -1330 -142 -431 -778
-2351 -900 -2720 -56 -170 -93 -266 -102 -268 -11 -2 -35 59 -91 230 -43 128
-136 411 -207 628 -72 217 -171 519 -221 670 -50 151 -94 284 -98 295 -5 11
-26 76 -49 145 -81 253 -535 1629 -574 1740 -21 63 -41 122 -43 132 -2 9 -24
76 -48 150 -175 525 -517 1567 -517 1576 0 7 -3 13 -7 13 -18 3 -1124 4 -1132
1z"/>
</g>
</svg>
